<svg width="15" height="15" viewBox="0 0 15 15" fill="none" xmlns="http://www.w3.org/2000/svg">
<path d="M15 2.28614C14.8936 2.54964 14.7014 2.65144 14.4158 2.64713C13.6253 2.63578 12.8348 2.64321 12.044 2.64321C11.9908 2.64321 11.9376 2.64321 11.9137 2.64321C11.7853 2.90554 11.6945 3.16865 11.5423 3.38869C11.0227 4.14003 10.2885 4.47205 9.39008 4.32483C8.49983 4.17918 7.91246 3.63887 7.64559 2.77085C7.60919 2.65222 7.54971 2.64126 7.44758 2.64165C5.14898 2.644 2.85077 2.64282 0.552175 2.64478C0.388604 2.64478 0.242643 2.61737 0.127205 2.49208C-0.108369 2.23681 0.00628742 1.82061 0.342038 1.72978C0.420693 1.70863 0.506 1.70628 0.588176 1.70628C2.86212 1.70511 5.13607 1.7055 7.4104 1.7055C7.47341 1.7055 7.53602 1.7055 7.60567 1.7055C7.70115 1.32141 7.8702 0.985479 8.13434 0.701229C8.46735 0.34298 8.87432 0.118633 9.35486 0.0277986C9.38225 0.0227087 9.40847 0.0093967 9.43508 0C9.63035 0 9.82561 0 10.0209 0C10.0436 0.00822211 10.0659 0.0191849 10.0894 0.0234918C10.8622 0.164442 11.4085 0.597865 11.7376 1.30692C11.7963 1.433 11.8335 1.56925 11.8824 1.70472C11.9419 1.70472 11.9955 1.70472 12.0487 1.70472C12.8247 1.70472 13.6007 1.71255 14.3762 1.70041C14.6654 1.69571 14.8775 1.78224 15.0004 2.05083C15 2.12953 15 2.20783 15 2.28614ZM9.74461 0.933797C9.05354 0.93184 8.49631 1.48507 8.49553 2.17416C8.49514 2.8613 9.05589 3.42432 9.73992 3.42353C10.4169 3.42275 10.9796 2.86325 10.9843 2.1863C10.9898 1.49995 10.4314 0.935755 9.74461 0.933797Z" fill="#101010"/>
<path d="M14.9997 12.9534C14.8768 13.2228 14.6639 13.3081 14.3751 13.3038C13.5992 13.2921 12.8232 13.2999 12.0472 13.2999C11.994 13.2999 11.9404 13.2999 11.8875 13.2999C11.5166 14.4377 10.7609 15.0798 9.54863 14.9917C8.52299 14.9173 7.89493 14.2881 7.59596 13.2999C7.54 13.2999 7.47739 13.2999 7.41478 13.2999C5.12557 13.2999 2.83676 13.2999 0.547549 13.2999C0.270887 13.2999 0.0940119 13.1852 0.0247487 12.9643C-0.0640803 12.6801 0.134709 12.3864 0.43211 12.3649C0.490416 12.3606 0.549114 12.3622 0.607812 12.3622C2.87745 12.3622 5.14709 12.3622 7.41634 12.3622C7.47426 12.3622 7.53257 12.3622 7.59009 12.3622C7.92584 11.2949 8.62278 10.6512 9.75212 10.6563C10.8693 10.6614 11.5557 11.3058 11.8856 12.3622C12.2495 12.3622 12.615 12.3622 12.9809 12.3622C13.4544 12.3622 13.9283 12.3739 14.401 12.3579C14.6921 12.3481 14.8901 12.4491 15.0001 12.7192C14.9997 12.7972 14.9997 12.8755 14.9997 12.9534ZM9.74468 14.0712C10.4264 14.0688 10.982 13.5141 10.9844 12.8336C10.9867 12.1504 10.4217 11.5819 9.73999 11.5819C9.05518 11.5819 8.49599 12.1429 8.4956 12.8308C8.49521 13.5191 9.05362 14.0735 9.74468 14.0712Z" fill="#101010"/>
<path d="M14.9993 7.61975C14.8843 7.8856 14.6824 7.97644 14.3948 7.97566C12.1247 7.96822 9.85469 7.97174 7.58466 7.97174C7.52636 7.97174 7.46805 7.97174 7.41248 7.97174C7.06108 9.05706 6.35436 9.67489 5.19019 9.67881C4.37195 9.68155 3.41478 9.10913 3.12482 7.97174C3.0759 7.97174 3.02347 7.97174 2.97103 7.97174C2.14613 7.97174 1.32084 7.97331 0.495946 7.97096C0.133195 7.96978 -0.0996388 7.63346 0.0420181 7.31749C0.131238 7.11821 0.2952 7.03285 0.51199 7.03324C1.3271 7.0352 2.14261 7.03403 2.95772 7.03403C3.01094 7.03403 3.06455 7.03403 3.12795 7.03403C3.27939 6.43225 3.6077 5.95889 4.13716 5.63588C4.51399 5.40605 4.92488 5.31247 5.36667 5.32422C6.1227 5.34419 7.09512 5.85474 7.40113 7.03403C7.45514 7.03403 7.51266 7.03403 7.57057 7.03403C9.8453 7.03403 12.1204 7.03716 14.3951 7.03011C14.6828 7.02933 14.8847 7.11938 14.9997 7.38601C14.9993 7.46353 14.9993 7.54145 14.9993 7.61975ZM5.26337 8.74618C5.95169 8.74618 6.50736 8.18826 6.50658 7.49838C6.50541 6.81555 5.956 6.26428 5.2708 6.2588C4.58482 6.25332 4.01937 6.81281 4.0178 7.49838C4.01624 8.18434 4.577 8.74618 5.26337 8.74618Z" fill="#101010"/>
</svg>
