<svg width="18" height="19" viewBox="0 0 18 19" fill="none" xmlns="http://www.w3.org/2000/svg">
<path d="M18 10.0642C17.9137 10.408 17.82 10.7477 17.6025 11.0301C17.2387 11.5007 16.7775 11.7463 16.2113 11.7545C16.1138 11.7545 16.0163 11.7545 15.8962 11.7545C15.8962 11.8527 15.8962 11.9263 15.8962 12C15.8962 12.9904 15.8962 13.9767 15.8962 14.9671C15.8962 15.1267 15.855 15.2577 15.7087 15.3231C15.5625 15.3886 15.4462 15.3231 15.345 15.2085C15.3262 15.184 15.3037 15.1635 15.285 15.139C14.8462 14.6151 14.4112 14.0913 13.9725 13.5674C13.9275 13.5102 13.8787 13.4569 13.8187 13.3874C13.8037 13.4324 13.7925 13.461 13.7887 13.4897C13.7325 14.5537 12.9225 15.3395 11.9213 15.3354C10.3575 15.3272 8.79375 15.3477 7.23 15.3477C7.08 15.3477 6.9825 15.4009 6.885 15.5196C6.0075 16.5795 5.1225 17.6354 4.24125 18.6954C4.18875 18.7568 4.14 18.8222 4.08 18.8714C3.88125 19.0351 3.645 18.9327 3.6 18.6667C3.58875 18.5972 3.58875 18.5276 3.58875 18.458C3.58875 17.5085 3.58875 16.555 3.58875 15.6055C3.58875 15.5319 3.58875 15.4541 3.58875 15.3559C3.51 15.3559 3.44625 15.3559 3.3825 15.3559C2.8725 15.3559 2.3625 15.3559 1.8525 15.3559C0.9075 15.3559 0.225 14.7625 0.01875 13.7598C0.0225 13.723 0.01125 13.6943 0 13.6616C0 11.1856 0 8.70962 0 6.23364C0.01125 6.21318 0.02625 6.19272 0.03 6.16816C0.24 5.16959 0.9075 4.58026 1.84875 4.56799C2.5575 4.5598 3.26625 4.56389 3.975 4.5598C4.0425 4.5598 4.11 4.5598 4.2 4.5598C4.2 4.46567 4.2 4.40019 4.2 4.33062C4.2 3.87635 4.2 3.42617 4.2 2.9719C4.2 2.65678 4.245 2.34575 4.37625 2.06336C4.72875 1.31852 5.295 0.950195 6.06375 0.950195C9.42 0.95838 12.7762 0.966565 16.1325 0.97475C16.2038 0.97475 16.275 0.97475 16.3425 0.982936C16.8337 1.02386 17.235 1.25304 17.565 1.65002C17.8013 1.9324 17.8988 2.28436 18 2.63222C18 5.1082 18 7.58827 18 10.0642ZM4.2 17.7705C4.27875 17.6804 4.31625 17.6354 4.3575 17.5904C5.0925 16.7064 5.835 15.8265 6.56625 14.9384C6.70875 14.7666 6.85875 14.6929 7.06875 14.6929C8.685 14.6929 10.3013 14.6847 11.9175 14.6724C12.72 14.6683 13.2 14.1445 13.2 13.2769C13.2038 11.0505 13.2038 8.82421 13.2 6.59788C13.2 5.72208 12.7125 5.19824 11.9025 5.19824C11.1075 5.19824 10.3088 5.19824 9.51375 5.20233C6.97125 5.21051 4.42875 5.21461 1.88625 5.22279C1.08 5.22688 0.6 5.75891 0.6 6.63471C0.6 8.86104 0.6 11.0874 0.6 13.3137C0.6 14.1527 1.095 14.6929 1.86375 14.6929C2.50125 14.697 3.1425 14.6929 3.78 14.6929C4.10625 14.6929 4.2 14.7952 4.2 15.1472C4.2 15.7733 4.2 16.3995 4.2 17.0215C4.2 17.2548 4.2 17.484 4.2 17.7705ZM4.8225 4.55571C4.90875 4.55571 4.98375 4.55571 5.05875 4.55571C7.35375 4.55162 9.6525 4.55162 11.9475 4.54343C12.3675 4.54343 12.7463 4.65802 13.08 4.93631C13.5825 5.35375 13.8038 5.91443 13.8038 6.59788C13.8 8.45998 13.8038 10.3262 13.8 12.1883C13.8 12.3233 13.8337 12.4256 13.92 12.5279C14.3362 13.015 14.7413 13.5061 15.15 13.9972C15.1875 14.0422 15.2212 14.0954 15.285 14.1854C15.2887 14.0585 15.2963 13.9972 15.2963 13.9358C15.2963 13.1459 15.2963 12.352 15.2963 11.5621C15.2963 11.2061 15.3975 11.0956 15.7313 11.0956C15.8663 11.0956 16.0012 11.0956 16.1362 11.0956C16.905 11.0915 17.4 10.5553 17.4037 9.72047C17.4037 7.48186 17.4037 5.23916 17.4037 3.00055C17.4037 2.85731 17.3888 2.70589 17.355 2.56674C17.2463 2.08792 16.8188 1.62137 16.1213 1.62137C12.78 1.62137 9.4425 1.60909 6.10125 1.60091C6.05625 1.60091 6.0075 1.60091 5.9625 1.605C5.38875 1.64183 4.88625 2.05927 4.8375 2.6445C4.785 3.26656 4.8225 3.90091 4.8225 4.55571Z" fill="#3F5F4A"/>
</svg>
