<svg width="20" height="16" viewBox="0 0 20 16" fill="none" xmlns="http://www.w3.org/2000/svg">
<path d="M14.7831 15.999C14.2113 15.9881 13.6391 15.9694 13.0674 15.9674C10.6427 15.96 8.21807 15.9595 5.79394 15.9536C4.50598 15.9506 3.63378 14.7856 4.0871 13.6433C5.0485 11.2219 6.86907 9.64899 9.45021 8.84252C9.47473 8.83462 9.49977 8.82869 9.52428 8.8198C9.53054 8.81783 9.53367 8.80844 9.51281 8.8361C9.14765 8.43361 8.74128 8.07013 8.44029 7.63998C6.96297 5.53269 7.52948 2.24113 9.59836 0.771406C10.1878 0.352614 10.8477 0.101735 11.5859 0.0419779C11.6438 0.0375332 11.7001 0.0143219 11.757 0C11.8962 0 12.035 0 12.1743 0C12.2327 0.013828 12.2906 0.0350639 12.3496 0.0395086C13.3866 0.118032 14.2515 0.534848 14.9443 1.25786C15.9912 2.35027 16.4096 3.66047 16.3512 5.11439C16.2917 6.5846 15.7189 7.82616 14.4669 8.7477C14.4487 8.76103 14.4398 8.78573 14.421 8.81388C14.4748 8.83462 14.5196 8.85437 14.5661 8.87018C17.3105 9.78134 19.191 11.4852 20.0001 14.1727C20.0001 14.2384 20.0001 14.3046 20.0001 14.3703C19.9219 14.7584 19.793 15.1214 19.5014 15.4227C19.1691 15.7659 18.7424 15.9151 18.2787 16C17.1133 15.999 15.9484 15.999 14.7831 15.999ZM11.9359 15.0251C11.9359 15.0345 11.9359 15.0439 11.9359 15.0533C13.9615 15.0533 15.987 15.0538 18.0126 15.0533C18.7998 15.0533 19.1754 14.5441 18.8827 13.8547C17.9897 11.7508 16.3814 10.3804 14.0997 9.71369C13.7053 9.59862 13.4002 9.41194 13.3245 9.00549C13.2484 8.59559 13.4372 8.30224 13.7867 8.05877C14.0428 7.88049 14.2849 7.66862 14.4831 7.43355C15.7617 5.91493 15.6516 3.34292 14.2609 1.91271C13.0423 0.659794 11.0642 0.619298 9.80441 1.83024C8.13408 3.43527 8.1273 6.7461 10.2572 8.11457C10.7126 8.40743 10.8102 8.96006 10.4695 9.34428C10.3302 9.50182 10.1023 9.62084 9.88996 9.68307C7.58374 10.3641 5.95722 11.7375 5.03546 13.8626C4.74542 14.5318 5.29785 15.0449 5.88523 15.0365C7.90194 15.0073 9.91918 15.0251 11.9359 15.0251Z" fill="#3F5F4A"/>
<path d="M3.1816 7.41127C3.74551 7.41127 4.27446 7.39645 4.80133 7.42016C4.96513 7.42756 5.18057 7.49967 5.26925 7.61375C5.35689 7.72635 5.37776 7.95994 5.31099 8.08439C5.24474 8.20786 5.03712 8.32243 4.88323 8.3333C4.42574 8.36589 3.96356 8.34564 3.50346 8.34614C3.40956 8.34614 3.31514 8.34614 3.1816 8.34614C3.1816 8.71456 3.1816 9.06421 3.1816 9.41386C3.1816 9.59461 3.18995 9.77586 3.17743 9.95611C3.15708 10.2608 2.95468 10.4396 2.66099 10.4277C2.38451 10.4164 2.20611 10.2287 2.20298 9.93142C2.19776 9.43016 2.19881 8.92889 2.19672 8.42762C2.19672 8.41281 2.18576 8.3975 2.16646 8.34614C1.81122 8.34614 1.44137 8.34614 1.07204 8.34614C0.88111 8.34614 0.689664 8.35058 0.498739 8.34416C0.191485 8.3333 0.00316865 8.1565 3.87341e-05 7.88488C-0.00309118 7.61622 0.183661 7.42262 0.488827 7.41522C0.957272 7.40336 1.42676 7.41176 1.89573 7.41127C1.98858 7.41127 2.08196 7.41127 2.20194 7.41127C2.20194 6.88383 2.19776 6.38454 2.20507 5.88525C2.20663 5.77413 2.21915 5.64869 2.27445 5.55485C2.38712 5.36274 2.58379 5.28817 2.80862 5.34447C3.0444 5.40373 3.17221 5.5677 3.1769 5.79734C3.18525 6.20823 3.18056 6.61912 3.1816 7.0305C3.1816 7.14508 3.1816 7.25965 3.1816 7.41127Z" fill="#3F5F4A"/>
</svg>
