<svg width="21" height="21" viewBox="0 0 21 21" fill="none" xmlns="http://www.w3.org/2000/svg">
<path d="M6.96654 3.942C7.5224 3.72249 8.03292 3.52921 8.53629 3.31447C8.61025 3.28345 8.69136 3.16176 8.69375 3.08063C8.71045 2.66307 8.69852 2.24312 8.7009 1.82556C8.70567 1.18848 9.05159 0.840113 9.6814 0.837727C10.4543 0.835341 11.2273 0.835341 12.0002 0.837727C12.6324 0.840113 12.976 1.18371 12.9807 1.82556C12.9855 2.23596 12.9879 2.64398 12.9784 3.05439C12.976 3.20471 13.0118 3.28345 13.1668 3.34072C13.6726 3.52444 14.1688 3.72964 14.7103 3.94439C15.0157 3.63659 15.3544 3.29299 15.698 2.95417C16.1489 2.50798 16.6475 2.5032 17.096 2.94701C17.6518 3.49581 18.2053 4.04938 18.754 4.60533C19.1739 5.03005 19.1715 5.5359 18.754 5.96301C18.4104 6.31614 18.0574 6.65974 17.7401 6.97709C17.9548 7.51872 18.148 8.02934 18.3604 8.5328C18.3914 8.60916 18.5106 8.69029 18.5918 8.69506C19.0188 8.71176 19.4482 8.69983 19.8752 8.7046C20.4931 8.71176 20.8366 9.06013 20.839 9.6805C20.8414 10.4631 20.8414 11.2434 20.839 12.026C20.8366 12.6249 20.486 12.9757 19.8848 12.9828C19.4577 12.9876 19.0283 12.99 18.6013 12.9804C18.4558 12.9781 18.3914 13.0305 18.3413 13.1666C18.1528 13.67 17.95 14.1687 17.7377 14.708C18.0383 15.0086 18.3723 15.3403 18.7063 15.6767C19.1882 16.1635 19.1858 16.6454 18.6991 17.1346C18.2983 17.5378 17.8975 17.9387 17.4944 18.3372C17.2749 18.5543 17.0745 18.5805 16.9123 18.4207C16.7524 18.2632 16.7763 18.0508 16.9862 17.8385C17.387 17.4352 17.783 17.0296 18.191 16.6359C18.3627 16.4713 18.3747 16.3424 18.1957 16.173C17.814 15.8055 17.4467 15.4214 17.0673 15.0515C16.8836 14.875 16.886 14.7008 16.9862 14.4765C17.2558 13.8681 17.5158 13.2525 17.752 12.6297C17.8403 12.3959 17.9548 12.2718 18.2101 12.2765C18.7397 12.2837 19.2717 12.2718 19.8013 12.2813C20.0398 12.2861 20.1329 12.1978 20.1305 11.9544C20.121 11.21 20.121 10.4655 20.1305 9.72107C20.1329 9.48962 20.0351 9.40849 19.8132 9.41088C19.2931 9.41804 18.7707 9.40611 18.2506 9.41565C17.9763 9.42042 17.8451 9.31066 17.7496 9.04581C17.5254 8.42782 17.2653 7.82414 16.9934 7.22524C16.886 6.98663 16.8884 6.81245 17.0816 6.62872C17.4514 6.27558 17.7997 5.90097 18.1719 5.54783C18.3604 5.36887 18.3794 5.23287 18.1814 5.04198C17.659 4.53852 17.1484 4.02313 16.6427 3.50297C16.4662 3.31924 16.3326 3.31924 16.1584 3.50297C15.7982 3.87997 15.4189 4.23788 15.0586 4.61249C14.8726 4.80576 14.6936 4.79622 14.4598 4.69123C13.861 4.4216 13.2551 4.1663 12.6372 3.93723C12.3867 3.84418 12.2698 3.72249 12.2746 3.45763C12.2817 2.94701 12.2674 2.43401 12.2794 1.92339C12.2841 1.66808 12.2102 1.55116 11.9311 1.55593C11.2058 1.57025 10.4806 1.57025 9.75535 1.55593C9.47862 1.55116 9.39989 1.66569 9.40705 1.921C9.41898 2.43162 9.40467 2.94463 9.41182 3.45525C9.41659 3.7201 9.2997 3.84418 9.04921 3.93485C8.43371 4.16152 7.82537 4.41683 7.22658 4.68884C6.97609 4.80338 6.79716 4.79145 6.60631 4.59102C6.24608 4.21402 5.86915 3.85611 5.50653 3.48149C5.34908 3.31924 5.22264 3.31685 5.0628 3.48149C4.54273 4.01359 4.01551 4.54091 3.48351 5.05869C3.30459 5.23287 3.32367 5.35933 3.49305 5.52158C3.86283 5.87472 4.21352 6.24695 4.58329 6.60247C4.79084 6.80052 4.798 6.98424 4.67633 7.24671C4.40675 7.82414 4.15388 8.41589 3.94394 9.01718C3.84136 9.30589 3.70299 9.42281 3.40479 9.41565C2.89426 9.40372 2.38135 9.41804 1.87082 9.41088C1.64896 9.40849 1.55114 9.48962 1.55353 9.72107C1.56307 10.4751 1.56069 11.2291 1.55353 11.9807C1.55114 12.1978 1.6418 12.2813 1.85412 12.2789C2.38373 12.2742 2.91573 12.2837 3.44534 12.2742C3.72446 12.2694 3.84374 12.3959 3.93917 12.6559C4.16103 13.2644 4.41391 13.8633 4.68349 14.4526C4.798 14.7008 4.798 14.8821 4.59522 15.073C4.22545 15.4262 3.87714 15.8032 3.50498 16.1539C3.30697 16.34 3.32129 16.476 3.51214 16.6574C3.9177 17.0415 4.30656 17.4424 4.6978 17.8385C4.90774 18.0508 4.93159 18.2632 4.76937 18.4207C4.60476 18.5805 4.40437 18.5543 4.18727 18.3372C3.76502 17.9172 3.34276 17.4973 2.92527 17.0726C2.51733 16.6574 2.51256 16.1491 2.9205 15.7364C3.26642 15.3856 3.62426 15.0468 3.9511 14.727C3.72923 14.1639 3.52884 13.6366 3.30936 13.1188C3.28073 13.0544 3.15906 12.9924 3.08034 12.99C2.65331 12.9709 2.22389 12.9804 1.79686 12.9757C1.19568 12.9685 0.844995 12.6178 0.84261 12.0189C0.840224 11.2267 0.840224 10.4369 0.84261 9.64471C0.844995 9.0649 1.19807 8.70699 1.77778 8.69744C2.21435 8.69029 2.65331 8.7046 3.08988 8.6879C3.17099 8.68551 3.28789 8.602 3.32129 8.52565C3.4358 8.27272 3.50975 8.0031 3.61711 7.7454C3.71969 7.49725 3.84374 7.25864 3.97257 6.98424C3.63619 6.65258 3.29027 6.31614 2.94913 5.97494C2.50301 5.52636 2.50301 5.02767 2.94913 4.57909C3.49305 4.03029 4.03937 3.48627 4.58806 2.94224C5.03418 2.49843 5.53516 2.50082 5.98605 2.94701C6.32242 3.28345 6.65164 3.62227 6.96654 3.942Z" fill="#3F5F4A"/>
<path d="M10.8339 20.8344C9.50512 20.8344 8.17393 20.8367 6.84513 20.8344C5.98391 20.832 5.471 20.3261 5.4877 19.46C5.50201 18.7275 5.46384 17.9782 5.60698 17.2696C5.95767 15.5158 7.53935 14.2631 9.32858 14.2393C10.3425 14.2249 11.3564 14.2249 12.3703 14.2393C14.4577 14.2703 16.1682 15.993 16.1992 18.0784C16.2064 18.5437 16.2016 19.009 16.2016 19.4743C16.1992 20.3213 15.6958 20.8344 14.8537 20.8344C13.513 20.8367 12.1746 20.8344 10.8339 20.8344ZM10.8315 20.1209C12.1723 20.1209 13.5106 20.1233 14.8513 20.1185C15.2951 20.1185 15.4788 19.93 15.4811 19.4886C15.4835 18.9947 15.4907 18.5032 15.4764 18.0092C15.4334 16.4058 14.0855 15.0147 12.4824 14.9646C11.3945 14.9288 10.3043 14.9336 9.21645 14.9622C7.87811 15.0004 6.62565 15.9739 6.33937 17.2791C6.18908 17.9663 6.22725 18.6988 6.20339 19.4123C6.18431 19.9491 6.36323 20.1161 6.89523 20.1185C8.20733 20.1233 9.51943 20.1209 10.8315 20.1209Z" fill="#3F5F4A"/>
<path d="M10.8363 13.5154C8.97787 13.513 7.44629 11.9788 7.44629 10.1224C7.44629 8.26603 8.97548 6.73179 10.8363 6.72463C12.7019 6.71748 14.2501 8.26842 14.2406 10.1343C14.231 11.9955 12.6971 13.5178 10.8363 13.5154ZM10.8315 12.7972C12.3106 12.802 13.5154 11.6065 13.5201 10.1319C13.5249 8.65974 12.3225 7.44761 10.8506 7.44046C9.38343 7.4333 8.16675 8.64303 8.16198 10.1129C8.1596 11.5874 9.3548 12.7924 10.8315 12.7972Z" fill="#3F5F4A"/>
<path d="M11.8934 15.8407C12.2847 15.824 12.7451 15.855 13.1697 16.0841C13.9141 16.485 14.3268 17.1077 14.4079 17.9476C14.4389 18.2602 14.3053 18.4463 14.0715 18.4582C13.8497 18.4678 13.7137 18.3079 13.6922 18.0073C13.6326 17.2366 13.0839 16.6496 12.3133 16.5708C11.9722 16.5351 11.6262 16.5565 11.2827 16.547C10.9988 16.5398 10.8438 16.411 10.8438 16.1915C10.8461 15.9719 11.0012 15.8503 11.2875 15.8407C11.297 15.8407 11.3066 15.8407 11.3161 15.8407C11.4831 15.8407 11.6501 15.8407 11.8934 15.8407Z" fill="#3F5F4A"/>
</svg>
