<svg width="18" height="17" viewBox="0 0 18 17" fill="none" xmlns="http://www.w3.org/2000/svg">
<path d="M11.3652 10.6666V10.1666H11.2558L11.1565 10.2123L11.3652 10.6666ZM6.96083 10.6666L7.16881 10.2119L7.06976 10.1666H6.96083V10.6666ZM9.16302 10.2C11.8407 10.2 14.013 8.02771 14.013 5.35H13.013C13.013 7.47542 11.2884 9.2 9.16302 9.2V10.2ZM4.31302 5.35C4.31302 8.02771 6.48531 10.2 9.16302 10.2V9.2C7.0376 9.2 5.31302 7.47542 5.31302 5.35H4.31302ZM9.16302 0.5C6.48531 0.5 4.31302 2.6723 4.31302 5.35H5.31302C5.31302 3.22458 7.0376 1.5 9.16302 1.5V0.5ZM14.013 5.35C14.013 2.6723 11.8407 0.5 9.16302 0.5V1.5C11.2884 1.5 13.013 3.22458 13.013 5.35H14.013ZM13.0297 10.1666H11.3652V11.1666H13.0297V10.1666ZM17.3964 14.5333C17.3964 12.1214 15.4416 10.1666 13.0297 10.1666V11.1666C14.8893 11.1666 16.3964 12.6737 16.3964 14.5333H17.3964ZM17.3964 15.0166V14.5333H16.3964V15.0166H17.3964ZM15.4464 16.9666C16.523 16.9666 17.3964 16.0933 17.3964 15.0166H16.3964C16.3964 15.541 15.9707 15.9666 15.4464 15.9666V16.9666ZM2.87969 16.9666H15.4464V15.9666H2.87969V16.9666ZM0.929688 15.0166C0.929688 16.0933 1.80302 16.9666 2.87969 16.9666V15.9666C2.35531 15.9666 1.92969 15.541 1.92969 15.0166H0.929688ZM0.929688 14.5333V15.0166H1.92969V14.5333H0.929688ZM5.29635 10.1666C2.88448 10.1666 0.929688 12.1214 0.929688 14.5333H1.92969C1.92969 12.6737 3.43677 11.1666 5.29635 11.1666V10.1666ZM6.96083 10.1666H5.29635V11.1666H6.96083V10.1666ZM9.16302 10.65C8.45307 10.65 7.78063 10.4918 7.16881 10.2119L6.75286 11.1213C7.48833 11.4577 8.30214 11.65 9.16302 11.65V10.65ZM11.1565 10.2123C10.5486 10.4916 9.8734 10.65 9.16302 10.65V11.65C10.0235 11.65 10.8406 11.4579 11.574 11.121L11.1565 10.2123Z" fill="#3F5F4A"/>
</svg>
