<svg width="16" height="22" viewBox="0 0 16 22" fill="none" xmlns="http://www.w3.org/2000/svg">
<path fill-rule="evenodd" clip-rule="evenodd" d="M7.84455 20.6623C4.15273 20.6623 1 20.0878 1 17.787C1 15.4862 4.13273 13.3623 7.84455 13.3623C11.5364 13.3623 14.6891 15.4657 14.6891 17.7664C14.6891 20.0663 11.5564 20.6623 7.84455 20.6623Z" stroke="#130F26" stroke-width="1.5" stroke-linecap="round" stroke-linejoin="round"/>
<path fill-rule="evenodd" clip-rule="evenodd" d="M7.83725 10.174C10.26 10.174 12.2236 8.21039 12.2236 5.78766C12.2236 3.36494 10.26 1.40039 7.83725 1.40039C5.41452 1.40039 3.44998 3.36494 3.44998 5.78766C3.4418 8.20221 5.3918 10.1658 7.80634 10.174C7.81725 10.174 7.82725 10.174 7.83725 10.174Z" stroke="#130F26" stroke-width="1.5" stroke-linecap="round" stroke-linejoin="round"/>
</svg>
