<svg width="25" height="21" viewBox="0 0 25 21" fill="none" xmlns="http://www.w3.org/2000/svg">
<path d="M18.4782 20.9298C17.7635 20.9155 17.0482 20.891 16.3336 20.8884C13.3029 20.8787 10.2722 20.8781 7.24212 20.8703C5.63221 20.8664 4.54199 19.3424 5.10862 17.848C6.31034 14.6804 8.58598 12.6227 11.8123 11.5677C11.8429 11.5574 11.8742 11.5496 11.9049 11.538C11.9127 11.5354 11.9166 11.5231 11.8905 11.5593C11.4341 11.0328 10.9262 10.5573 10.5499 9.99454C8.70335 7.23781 9.41147 2.93182 11.9975 1.00915C12.7343 0.461287 13.5591 0.133088 14.4818 0.0549151C14.5542 0.0491005 14.6246 0.0187357 14.6957 0C14.8697 0 15.0432 0 15.2173 0C15.2903 0.0180897 15.3627 0.0458702 15.4364 0.0516848C16.7326 0.154408 17.8137 0.699683 18.6796 1.64551C19.9883 3.0746 20.5112 4.7886 20.4382 6.6906C20.3639 8.61392 19.6479 10.2381 18.083 11.4437C18.0602 11.4611 18.0491 11.4934 18.0256 11.5302C18.0928 11.5574 18.1489 11.5832 18.2069 11.6039C21.6373 12.7959 23.988 15.0248 24.9993 18.5406C24.9993 18.6266 24.9993 18.7131 24.9993 18.799C24.9015 19.3069 24.7404 19.7817 24.3759 20.1758C23.9606 20.6248 23.4272 20.8199 22.8475 20.931C21.3909 20.9298 19.9348 20.9298 18.4782 20.9298ZM14.9193 19.6557C14.9193 19.668 14.9193 19.6803 14.9193 19.6925C17.4512 19.6925 19.9831 19.6932 22.515 19.6925C23.4989 19.6925 23.9684 19.0265 23.6026 18.1246C22.4863 15.3723 20.476 13.5795 17.624 12.7074C17.131 12.5568 16.7496 12.3126 16.655 11.7809C16.5598 11.2447 16.7959 10.8609 17.2328 10.5424C17.5529 10.3092 17.8555 10.032 18.1032 9.72449C19.7014 7.73786 19.5638 4.37318 17.8255 2.50219C16.3023 0.863136 13.8297 0.810159 12.255 2.3943C10.1672 4.49399 10.1587 8.82518 12.821 10.6154C13.3903 10.9985 13.5122 11.7215 13.0864 12.2241C12.9123 12.4302 12.6274 12.5859 12.362 12.6673C9.47928 13.5582 7.44621 15.3549 6.29404 18.1349C5.9315 19.0103 6.62202 19.6816 7.35622 19.6706C9.87703 19.6325 12.3985 19.6557 14.9193 19.6557Z" fill="white"/>
<path d="M11.5 2C12.3 1.2 14.1667 0.666667 15 0.5C18.2 1.7 19.5 4 19.5 5C20.7 7 18.1667 10.1667 17 11.5L17.5 12C18.1667 12.5 19.8 13.6 21 14C22.2 14.4 23.5 17.5 24 19L22.5 20H6.5L6 19L6.5 17L8.5 14.5L12.5 12V11L11.5 10.25L10 5.5C10.1667 4.66667 10.7 2.8 11.5 2Z" fill="white"/>
<path d="M3.97688 9.69547C4.68174 9.69547 5.34291 9.67609 6.00148 9.7071C6.20622 9.71679 6.47551 9.81112 6.58636 9.96036C6.69591 10.1077 6.72199 10.4132 6.63853 10.5761C6.55572 10.7376 6.2962 10.8875 6.10385 10.9017C5.532 10.9443 4.95429 10.9178 4.37919 10.9185C4.26182 10.9185 4.1438 10.9185 3.97688 10.9185C3.97688 11.4004 3.97688 11.8578 3.97688 12.3152C3.97688 12.5517 3.98731 12.7888 3.97166 13.0246C3.94623 13.4232 3.69324 13.6571 3.32613 13.6416C2.98055 13.6267 2.75755 13.3812 2.75364 12.9923C2.74712 12.3366 2.74842 11.6808 2.74581 11.0251C2.74581 11.0057 2.73212 10.9857 2.70799 10.9185C2.26395 10.9185 1.80165 10.9185 1.34 10.9185C1.10135 10.9185 0.862053 10.9243 0.623404 10.9159C0.239349 10.9017 0.00396069 10.6704 4.84162e-05 10.315C-0.00386386 9.96359 0.229569 9.71033 0.611015 9.70064C1.19655 9.68514 1.78339 9.69612 2.36958 9.69547C2.48565 9.69547 2.60236 9.69547 2.75233 9.69547C2.75233 9.00548 2.74712 8.35231 2.75625 7.69915C2.7582 7.55378 2.77385 7.38969 2.84297 7.26693C2.98381 7.01562 3.22963 6.91806 3.51066 6.99171C3.80539 7.06924 3.96514 7.28373 3.97101 7.58415C3.98144 8.12167 3.97557 8.65919 3.97688 9.19736C3.97688 9.34725 3.97688 9.49713 3.97688 9.69547Z" fill="white"/>
</svg>
