<svg width="25" height="21" viewBox="0 0 25 21" fill="none" xmlns="http://www.w3.org/2000/svg">
<path d="M18.4784 20.9298C17.7638 20.9155 17.0485 20.891 16.3338 20.8884C13.3031 20.8787 10.2724 20.8781 7.24236 20.8703C5.63246 20.8664 4.54224 19.3424 5.10887 17.848C6.31059 14.6804 8.58623 12.6227 11.8125 11.5677C11.8432 11.5574 11.8745 11.5496 11.9051 11.538C11.913 11.5354 11.9169 11.5231 11.8908 11.5593C11.4344 11.0328 10.9264 10.5573 10.5502 9.99454C8.70359 7.23781 9.41172 2.93182 11.9977 1.00915C12.7345 0.461287 13.5594 0.133088 14.482 0.0549151C14.5544 0.0491005 14.6248 0.0187357 14.6959 0C14.87 0 15.0434 0 15.2175 0C15.2906 0.0180897 15.3629 0.0458702 15.4366 0.0516848C16.7329 0.154408 17.814 0.699683 18.6799 1.64551C19.9885 3.0746 20.5115 4.7886 20.4385 6.6906C20.3641 8.61392 19.6482 10.2381 18.0833 11.4437C18.0604 11.4611 18.0494 11.4934 18.0259 11.5302C18.0931 11.5574 18.1491 11.5832 18.2072 11.6039C21.6376 12.7959 23.9882 15.0248 24.9995 18.5406C24.9995 18.6266 24.9995 18.7131 24.9995 18.799C24.9017 19.3069 24.7407 19.7817 24.3762 20.1758C23.9608 20.6248 23.4274 20.8199 22.8478 20.931C21.3911 20.9298 19.9351 20.9298 18.4784 20.9298ZM14.9195 19.6557C14.9195 19.668 14.9195 19.6803 14.9195 19.6925C17.4514 19.6925 19.9833 19.6932 22.5152 19.6925C23.4992 19.6925 23.9686 19.0265 23.6028 18.1246C22.4865 15.3723 20.4763 13.5795 17.6242 12.7074C17.1313 12.5568 16.7498 12.3126 16.6553 11.7809C16.5601 11.2447 16.7961 10.8609 17.233 10.5424C17.5532 10.3092 17.8557 10.032 18.1035 9.72449C19.7016 7.73786 19.5641 4.37318 17.8257 2.50219C16.3025 0.863136 13.83 0.810159 12.2553 2.3943C10.1674 4.49399 10.159 8.82518 12.8213 10.6154C13.3905 10.9985 13.5124 11.7215 13.0866 12.2241C12.9125 12.4302 12.6276 12.5859 12.3622 12.6673C9.47953 13.5582 7.44645 15.3549 6.29429 18.1349C5.93175 19.0103 6.62226 19.6816 7.35647 19.6706C9.87728 19.6325 12.3987 19.6557 14.9195 19.6557Z" fill="black"/>
<path d="M3.97688 9.69547C4.68174 9.69547 5.34291 9.67609 6.00148 9.7071C6.20622 9.71679 6.47551 9.81112 6.58636 9.96036C6.69591 10.1077 6.72199 10.4132 6.63853 10.5761C6.55572 10.7376 6.2962 10.8875 6.10385 10.9017C5.532 10.9443 4.95429 10.9178 4.37919 10.9185C4.26182 10.9185 4.1438 10.9185 3.97688 10.9185C3.97688 11.4004 3.97688 11.8578 3.97688 12.3152C3.97688 12.5517 3.98731 12.7888 3.97166 13.0246C3.94623 13.4232 3.69324 13.6571 3.32613 13.6416C2.98055 13.6267 2.75755 13.3812 2.75364 12.9923C2.74712 12.3366 2.74842 11.6808 2.74581 11.0251C2.74581 11.0057 2.73212 10.9857 2.70799 10.9185C2.26395 10.9185 1.80165 10.9185 1.34 10.9185C1.10135 10.9185 0.862053 10.9243 0.623404 10.9159C0.239349 10.9017 0.00396069 10.6704 4.84162e-05 10.315C-0.00386386 9.96359 0.229569 9.71033 0.611015 9.70064C1.19655 9.68514 1.78339 9.69612 2.36958 9.69547C2.48565 9.69547 2.60236 9.69547 2.75233 9.69547C2.75233 9.00548 2.74712 8.35231 2.75625 7.69915C2.7582 7.55378 2.77385 7.38969 2.84297 7.26693C2.98381 7.01562 3.22963 6.91806 3.51066 6.99171C3.80539 7.06924 3.96514 7.28373 3.97101 7.58415C3.98144 8.12167 3.97557 8.65919 3.97688 9.19736C3.97688 9.34725 3.97688 9.49713 3.97688 9.69547Z" fill="black"/>
</svg>
